<svg width="466" height="472" viewBox="0 0 466 472" fill="none" xmlns="http://www.w3.org/2000/svg">
<path d="M278.725 460.792C286.191 453.851 289.922 444.838 289.922 433.742V208.391L377.406 302.181C384.966 310.292 394.025 314.344 404.577 314.344C415.123 314.344 424.182 310.293 431.745 302.181L453.841 278.173C461.401 270.066 465.186 260.461 465.186 249.365C465.186 238.053 461.406 228.34 453.841 220.235L259.765 11.8443C252.002 3.94774 242.945 0 232.595 0C222.044 0 213.087 3.94774 205.725 11.8443L11.0508 220.235C3.68534 228.556 -1.87212e-05 238.267 -1.87212e-05 249.365C-1.87212e-05 260.672 3.68534 270.275 11.0508 278.172L33.7369 302.18C40.9016 310.291 49.8629 314.343 60.6062 314.343C71.3611 314.343 80.3224 310.292 87.4829 302.18L175.265 208.389V433.74C175.265 444.836 178.997 453.85 186.462 460.79C193.928 467.724 202.932 471.188 213.483 471.188H251.701C262.252 471.193 271.259 467.724 278.725 460.792Z" fill="#00C8E9"/>
</svg>
